<svg width="100" height="100" viewBox="0 0 100 100" fill="none" xmlns="http://www.w3.org/2000/svg">
<path d="M17.5605 49.7549H20.1885C20.1357 50.6162 19.8984 51.3809 19.4766 52.0488C19.0605 52.7168 18.4775 53.2383 17.7275 53.6133C16.9834 53.9883 16.0869 54.1758 15.0381 54.1758C14.2178 54.1758 13.4824 54.0352 12.832 53.7539C12.1816 53.4668 11.625 53.0566 11.1621 52.5234C10.7051 51.9902 10.3564 51.3457 10.1162 50.5898C9.87598 49.834 9.75586 48.9873 9.75586 48.0498V47.1621C9.75586 46.2246 9.87891 45.3779 10.125 44.6221C10.377 43.8604 10.7344 43.2129 11.1973 42.6797C11.666 42.1465 12.2256 41.7363 12.876 41.4492C13.5264 41.1621 14.2529 41.0186 15.0557 41.0186C16.1221 41.0186 17.0215 41.2119 17.7539 41.5986C18.4922 41.9854 19.0635 42.5186 19.4678 43.1982C19.8779 43.8779 20.124 44.6514 20.2061 45.5186H17.5693C17.54 45.0029 17.4375 44.5664 17.2617 44.209C17.0859 43.8457 16.8193 43.5732 16.4619 43.3916C16.1104 43.2041 15.6416 43.1104 15.0557 43.1104C14.6162 43.1104 14.2324 43.1924 13.9043 43.3564C13.5762 43.5205 13.3008 43.7695 13.0781 44.1035C12.8555 44.4375 12.6885 44.8594 12.5771 45.3691C12.4717 45.873 12.4189 46.4648 12.4189 47.1445V48.0498C12.4189 48.7119 12.4688 49.2949 12.5684 49.7988C12.668 50.2969 12.8203 50.7188 13.0254 51.0645C13.2363 51.4043 13.5059 51.6621 13.834 51.8379C14.168 52.0078 14.5693 52.0928 15.0381 52.0928C15.5889 52.0928 16.043 52.0049 16.4004 51.8291C16.7578 51.6533 17.0303 51.3926 17.2178 51.0469C17.4111 50.7012 17.5254 50.2705 17.5605 49.7549ZM24.2314 40.5V54H21.7002V40.5H24.2314ZM23.8711 48.9111H23.1768C23.1826 48.249 23.2705 47.6396 23.4404 47.083C23.6104 46.5205 23.8535 46.0342 24.1699 45.624C24.4863 45.208 24.8643 44.8857 25.3037 44.6572C25.749 44.4287 26.2412 44.3145 26.7803 44.3145C27.249 44.3145 27.6738 44.3818 28.0547 44.5166C28.4414 44.6455 28.7725 44.8564 29.0479 45.1494C29.3291 45.4365 29.5459 45.8145 29.6982 46.2832C29.8506 46.752 29.9268 47.3203 29.9268 47.9883V54H27.3779V47.9707C27.3779 47.5488 27.3164 47.2178 27.1934 46.9775C27.0762 46.7314 26.9033 46.5586 26.6748 46.459C26.4521 46.3535 26.1768 46.3008 25.8486 46.3008C25.4854 46.3008 25.1748 46.3682 24.917 46.5029C24.665 46.6377 24.4629 46.8252 24.3105 47.0654C24.1582 47.2998 24.0469 47.5752 23.9766 47.8916C23.9062 48.208 23.8711 48.5479 23.8711 48.9111ZM36.2285 54.1758C35.4902 54.1758 34.8281 54.0586 34.2422 53.8242C33.6562 53.584 33.1582 53.2529 32.748 52.8311C32.3438 52.4092 32.0332 51.9199 31.8164 51.3633C31.5996 50.8008 31.4912 50.2031 31.4912 49.5703V49.2188C31.4912 48.498 31.5938 47.8389 31.7988 47.2412C32.0039 46.6436 32.2969 46.125 32.6777 45.6855C33.0645 45.2461 33.5332 44.9092 34.084 44.6748C34.6348 44.4346 35.2559 44.3145 35.9473 44.3145C36.6211 44.3145 37.2188 44.4258 37.7402 44.6484C38.2617 44.8711 38.6982 45.1875 39.0498 45.5977C39.4072 46.0078 39.6768 46.5 39.8584 47.0742C40.04 47.6426 40.1309 48.2754 40.1309 48.9727V50.0273H32.5723V48.3398H37.6436V48.1465C37.6436 47.7949 37.5791 47.4814 37.4502 47.2061C37.3271 46.9248 37.1396 46.7021 36.8877 46.5381C36.6357 46.374 36.3135 46.292 35.9209 46.292C35.5869 46.292 35.2998 46.3652 35.0596 46.5117C34.8193 46.6582 34.623 46.8633 34.4707 47.127C34.3242 47.3906 34.2129 47.7012 34.1367 48.0586C34.0664 48.4102 34.0312 48.7969 34.0312 49.2188V49.5703C34.0312 49.9512 34.084 50.3027 34.1895 50.625C34.3008 50.9473 34.4561 51.2256 34.6553 51.46C34.8604 51.6943 35.1064 51.876 35.3936 52.0049C35.6865 52.1338 36.0176 52.1982 36.3867 52.1982C36.8438 52.1982 37.2686 52.1104 37.6611 51.9346C38.0596 51.7529 38.4023 51.4805 38.6895 51.1172L39.9199 52.4531C39.7207 52.7402 39.4482 53.0156 39.1025 53.2793C38.7627 53.543 38.3525 53.7598 37.8721 53.9297C37.3916 54.0938 36.8438 54.1758 36.2285 54.1758ZM46.7139 51.3721C46.7139 51.1904 46.6611 51.0264 46.5557 50.8799C46.4502 50.7334 46.2539 50.5986 45.9668 50.4756C45.6855 50.3467 45.2783 50.2295 44.7451 50.124C44.2646 50.0186 43.8164 49.8867 43.4004 49.7285C42.9902 49.5645 42.6328 49.3682 42.3281 49.1396C42.0293 48.9111 41.7949 48.6416 41.625 48.3311C41.4551 48.0146 41.3701 47.6543 41.3701 47.25C41.3701 46.8516 41.4551 46.4766 41.625 46.125C41.8008 45.7734 42.0498 45.4629 42.3721 45.1934C42.7002 44.918 43.0986 44.7041 43.5674 44.5518C44.042 44.3936 44.5752 44.3145 45.167 44.3145C45.9932 44.3145 46.7021 44.4463 47.2939 44.71C47.8916 44.9736 48.3486 45.3369 48.665 45.7998C48.9873 46.2568 49.1484 46.7783 49.1484 47.3643H46.6172C46.6172 47.1182 46.5645 46.8984 46.459 46.7051C46.3594 46.5059 46.2012 46.3506 45.9844 46.2393C45.7734 46.1221 45.498 46.0635 45.1582 46.0635C44.877 46.0635 44.6338 46.1133 44.4287 46.2129C44.2236 46.3066 44.0654 46.4355 43.9541 46.5996C43.8486 46.7578 43.7959 46.9336 43.7959 47.127C43.7959 47.2734 43.8252 47.4053 43.8838 47.5225C43.9482 47.6338 44.0508 47.7363 44.1914 47.8301C44.332 47.9238 44.5137 48.0117 44.7363 48.0938C44.9648 48.1699 45.2461 48.2402 45.5801 48.3047C46.2656 48.4453 46.8779 48.6299 47.417 48.8584C47.9561 49.0811 48.3838 49.3857 48.7002 49.7725C49.0166 50.1533 49.1748 50.6543 49.1748 51.2754C49.1748 51.6973 49.0811 52.084 48.8936 52.4355C48.7061 52.7871 48.4365 53.0947 48.085 53.3584C47.7334 53.6162 47.3115 53.8184 46.8193 53.9648C46.333 54.1055 45.7852 54.1758 45.1758 54.1758C44.291 54.1758 43.541 54.0176 42.9258 53.7012C42.3164 53.3848 41.8535 52.9834 41.5371 52.4971C41.2266 52.0049 41.0713 51.501 41.0713 50.9854H43.4707C43.4824 51.3311 43.5703 51.6094 43.7344 51.8203C43.9043 52.0312 44.1182 52.1836 44.376 52.2773C44.6396 52.3711 44.9238 52.418 45.2285 52.418C45.5566 52.418 45.8291 52.374 46.0459 52.2861C46.2627 52.1924 46.4268 52.0693 46.5381 51.917C46.6553 51.7588 46.7139 51.5771 46.7139 51.3721Z" fill="white"/>
<path d="M82.4395 49.7549H79.8115C79.8643 50.6162 80.1016 51.3809 80.5234 52.0488C80.9395 52.7168 81.5225 53.2383 82.2725 53.6133C83.0166 53.9883 83.9131 54.1758 84.9619 54.1758C85.7822 54.1758 86.5176 54.0352 87.168 53.7539C87.8184 53.4668 88.375 53.0566 88.8379 52.5234C89.2949 51.9902 89.6436 51.3457 89.8838 50.5898C90.124 49.834 90.2441 48.9873 90.2441 48.0498V47.1621C90.2441 46.2246 90.1211 45.3779 89.875 44.6221C89.623 43.8604 89.2656 43.2129 88.8027 42.6797C88.334 42.1465 87.7744 41.7363 87.124 41.4492C86.4736 41.1621 85.7471 41.0186 84.9443 41.0186C83.8779 41.0186 82.9785 41.2119 82.2461 41.5986C81.5078 41.9854 80.9365 42.5186 80.5322 43.1982C80.1221 43.8779 79.876 44.6514 79.7939 45.5186H82.4307C82.46 45.0029 82.5625 44.5664 82.7383 44.209C82.9141 43.8457 83.1807 43.5732 83.5381 43.3916C83.8896 43.2041 84.3584 43.1104 84.9443 43.1104C85.3838 43.1104 85.7676 43.1924 86.0957 43.3564C86.4238 43.5205 86.6992 43.7695 86.9219 44.1035C87.1445 44.4375 87.3115 44.8594 87.4229 45.3691C87.5283 45.873 87.5811 46.4648 87.5811 47.1445V48.0498C87.5811 48.7119 87.5312 49.2949 87.4316 49.7988C87.332 50.2969 87.1797 50.7188 86.9746 51.0645C86.7637 51.4043 86.4941 51.6621 86.166 51.8379C85.832 52.0078 85.4307 52.0928 84.9619 52.0928C84.4111 52.0928 83.957 52.0049 83.5996 51.8291C83.2422 51.6533 82.9697 51.3926 82.7822 51.0469C82.5889 50.7012 82.4746 50.2705 82.4395 49.7549ZM75.7686 40.5V54H78.2998V40.5H75.7686ZM76.1289 48.9111H76.8232C76.8174 48.249 76.7295 47.6396 76.5596 47.083C76.3896 46.5205 76.1465 46.0342 75.8301 45.624C75.5137 45.208 75.1357 44.8857 74.6963 44.6572C74.251 44.4287 73.7588 44.3145 73.2197 44.3145C72.751 44.3145 72.3262 44.3818 71.9453 44.5166C71.5586 44.6455 71.2275 44.8564 70.9521 45.1494C70.6709 45.4365 70.4541 45.8145 70.3018 46.2832C70.1494 46.752 70.0732 47.3203 70.0732 47.9883V54H72.6221V47.9707C72.6221 47.5488 72.6836 47.2178 72.8066 46.9775C72.9238 46.7314 73.0967 46.5586 73.3252 46.459C73.5479 46.3535 73.8232 46.3008 74.1514 46.3008C74.5146 46.3008 74.8252 46.3682 75.083 46.5029C75.335 46.6377 75.5371 46.8252 75.6895 47.0654C75.8418 47.2998 75.9531 47.5752 76.0234 47.8916C76.0938 48.208 76.1289 48.5479 76.1289 48.9111ZM63.7715 54.1758C64.5098 54.1758 65.1719 54.0586 65.7578 53.8242C66.3438 53.584 66.8418 53.2529 67.252 52.8311C67.6562 52.4092 67.9668 51.9199 68.1836 51.3633C68.4004 50.8008 68.5088 50.2031 68.5088 49.5703V49.2188C68.5088 48.498 68.4062 47.8389 68.2012 47.2412C67.9961 46.6436 67.7031 46.125 67.3223 45.6855C66.9355 45.2461 66.4668 44.9092 65.916 44.6748C65.3652 44.4346 64.7441 44.3145 64.0527 44.3145C63.3789 44.3145 62.7812 44.4258 62.2598 44.6484C61.7383 44.8711 61.3018 45.1875 60.9502 45.5977C60.5928 46.0078 60.3232 46.5 60.1416 47.0742C59.96 47.6426 59.8691 48.2754 59.8691 48.9727V50.0273H67.4277V48.3398H62.3564V48.1465C62.3564 47.7949 62.4209 47.4814 62.5498 47.2061C62.6729 46.9248 62.8604 46.7021 63.1123 46.5381C63.3643 46.374 63.6865 46.292 64.0791 46.292C64.4131 46.292 64.7002 46.3652 64.9404 46.5117C65.1807 46.6582 65.377 46.8633 65.5293 47.127C65.6758 47.3906 65.7871 47.7012 65.8633 48.0586C65.9336 48.4102 65.9688 48.7969 65.9688 49.2188V49.5703C65.9688 49.9512 65.916 50.3027 65.8105 50.625C65.6992 50.9473 65.5439 51.2256 65.3447 51.46C65.1396 51.6943 64.8936 51.876 64.6064 52.0049C64.3135 52.1338 63.9824 52.1982 63.6133 52.1982C63.1562 52.1982 62.7314 52.1104 62.3389 51.9346C61.9404 51.7529 61.5977 51.4805 61.3105 51.1172L60.0801 52.4531C60.2793 52.7402 60.5518 53.0156 60.8975 53.2793C61.2373 53.543 61.6475 53.7598 62.1279 53.9297C62.6084 54.0938 63.1562 54.1758 63.7715 54.1758ZM53.2861 51.3721C53.2861 51.1904 53.3389 51.0264 53.4443 50.8799C53.5498 50.7334 53.7461 50.5986 54.0332 50.4756C54.3145 50.3467 54.7217 50.2295 55.2549 50.124C55.7354 50.0186 56.1836 49.8867 56.5996 49.7285C57.0098 49.5645 57.3672 49.3682 57.6719 49.1396C57.9707 48.9111 58.2051 48.6416 58.375 48.3311C58.5449 48.0146 58.6299 47.6543 58.6299 47.25C58.6299 46.8516 58.5449 46.4766 58.375 46.125C58.1992 45.7734 57.9502 45.4629 57.6279 45.1934C57.2998 44.918 56.9014 44.7041 56.4326 44.5518C55.958 44.3936 55.4248 44.3145 54.833 44.3145C54.0068 44.3145 53.2979 44.4463 52.7061 44.71C52.1084 44.9736 51.6514 45.3369 51.335 45.7998C51.0127 46.2568 50.8516 46.7783 50.8516 47.3643H53.3828C53.3828 47.1182 53.4355 46.8984 53.541 46.7051C53.6406 46.5059 53.7988 46.3506 54.0156 46.2393C54.2266 46.1221 54.502 46.0635 54.8418 46.0635C55.123 46.0635 55.3662 46.1133 55.5713 46.2129C55.7764 46.3066 55.9346 46.4355 56.0459 46.5996C56.1514 46.7578 56.2041 46.9336 56.2041 47.127C56.2041 47.2734 56.1748 47.4053 56.1162 47.5225C56.0518 47.6338 55.9492 47.7363 55.8086 47.8301C55.668 47.9238 55.4863 48.0117 55.2637 48.0938C55.0352 48.1699 54.7539 48.2402 54.4199 48.3047C53.7344 48.4453 53.1221 48.6299 52.583 48.8584C52.0439 49.0811 51.6162 49.3857 51.2998 49.7725C50.9834 50.1533 50.8252 50.6543 50.8252 51.2754C50.8252 51.6973 50.9189 52.084 51.1064 52.4355C51.2939 52.7871 51.5635 53.0947 51.915 53.3584C52.2666 53.6162 52.6885 53.8184 53.1807 53.9648C53.667 54.1055 54.2148 54.1758 54.8242 54.1758C55.709 54.1758 56.459 54.0176 57.0742 53.7012C57.6836 53.3848 58.1465 52.9834 58.4629 52.4971C58.7734 52.0049 58.9287 51.501 58.9287 50.9854H56.5293C56.5176 51.3311 56.4297 51.6094 56.2656 51.8203C56.0957 52.0312 55.8818 52.1836 55.624 52.2773C55.3604 52.3711 55.0762 52.418 54.7715 52.418C54.4434 52.418 54.1709 52.374 53.9541 52.2861C53.7373 52.1924 53.5732 52.0693 53.4619 51.917C53.3447 51.7588 53.2861 51.5771 53.2861 51.3721Z" fill="white"/>
<path d="M43 19.4091C42.1716 19.4091 41.5 20.0807 41.5 20.9091C41.5 21.7375 42.1716 22.4091 43 22.4091V19.4091ZM57 22.4091C57.8284 22.4091 58.5 21.7375 58.5 20.9091C58.5 20.0807 57.8284 19.4091 57 19.4091V22.4091ZM43 40L41.5808 39.5143C41.424 39.9725 41.4981 40.4782 41.7796 40.8722C42.0612 41.2662 42.5157 41.5 43 41.5V40ZM57 40V41.5C57.4843 41.5 57.9388 41.2662 58.2204 40.8722C58.5019 40.4782 58.576 39.9725 58.4192 39.5143L57 40ZM50 8.5C48.1408 8.5 46.3831 9.36376 45.1093 10.591C43.8352 11.8185 42.9 13.5517 42.9 15.4545L45.9 15.4545C45.9 14.5412 46.3648 13.5472 47.1907 12.7514C48.0169 11.9554 49.0592 11.5 50 11.5V8.5ZM42.9 15.4545C42.9 17.3574 43.8352 19.0906 45.1093 20.3181C46.3831 21.5453 48.1408 22.4091 50 22.4091V19.4091C49.0592 19.4091 48.0169 18.9537 47.1907 18.1577C46.3648 17.3619 45.9 16.3679 45.9 15.4545L42.9 15.4545ZM50 22.4091C51.8741 22.4091 53.6323 21.5106 54.8966 20.2791C56.1585 19.05 57.1 17.3202 57.1 15.4545L54.1 15.4545C54.1 16.3162 53.6415 17.3136 52.8034 18.13C51.9677 18.944 50.9259 19.4091 50 19.4091V22.4091ZM57.1 15.4545C57.1 13.5889 56.1585 11.8591 54.8966 10.63C53.6323 9.39853 51.8741 8.5 50 8.5V11.5C50.9259 11.5 51.9677 11.9651 52.8034 12.7791C53.6415 13.5954 54.1 14.5929 54.1 15.4545L57.1 15.4545ZM43 22.4091H47.2V19.4091H43V22.4091ZM45.7 20.9091C45.7 28.7962 44.3986 31.2804 41.5808 39.5143L44.4192 40.4857C47.2014 32.356 48.7 29.3856 48.7 20.9091H45.7ZM43 41.5H57V38.5H43V41.5ZM47.2 22.4091H52.8V19.4091H47.2V22.4091ZM52.8 22.4091H57V19.4091H52.8V22.4091ZM58.4192 39.5143C55.6014 31.2804 54.3 28.7962 54.3 20.9091H51.3C51.3 29.3856 52.7986 32.356 55.5808 40.4857L58.4192 39.5143Z" fill="white"/>
<path d="M43 80.5909C42.1716 80.5909 41.5 79.9193 41.5 79.0909C41.5 78.2625 42.1716 77.5909 43 77.5909V80.5909ZM57 77.5909C57.8284 77.5909 58.5 78.2625 58.5 79.0909C58.5 79.9193 57.8284 80.5909 57 80.5909V77.5909ZM43 60L41.5808 60.4857C41.424 60.0275 41.4981 59.5218 41.7796 59.1278C42.0612 58.7338 42.5157 58.5 43 58.5V60ZM57 60V58.5C57.4843 58.5 57.9388 58.7338 58.2204 59.1278C58.5019 59.5218 58.576 60.0275 58.4192 60.4857L57 60ZM50 91.5C48.1408 91.5 46.3831 90.6362 45.1093 89.409C43.8352 88.1815 42.9 86.4483 42.9 84.5455H45.9C45.9 85.4588 46.3648 86.4528 47.1907 87.2486C48.0169 88.0446 49.0592 88.5 50 88.5V91.5ZM42.9 84.5455C42.9 82.6426 43.8352 80.9094 45.1093 79.6819C46.3831 78.4547 48.1408 77.5909 50 77.5909V80.5909C49.0592 80.5909 48.0169 81.0463 47.1907 81.8423C46.3648 82.6381 45.9 83.6321 45.9 84.5455H42.9ZM50 77.5909C51.8741 77.5909 53.6323 78.4894 54.8966 79.7209C56.1585 80.95 57.1 82.6798 57.1 84.5455L54.1 84.5455C54.1 83.6838 53.6415 82.6864 52.8034 81.87C51.9677 81.056 50.9259 80.5909 50 80.5909V77.5909ZM57.1 84.5455C57.1 86.4111 56.1585 88.1409 54.8966 89.37C53.6323 90.6015 51.8741 91.5 50 91.5V88.5C50.9259 88.5 51.9677 88.0349 52.8034 87.2209C53.6415 86.4046 54.1 85.4071 54.1 84.5455L57.1 84.5455ZM43 77.5909H47.2V80.5909H43V77.5909ZM45.7 79.0909C45.7 71.2038 44.3986 68.7196 41.5808 60.4857L44.4192 59.5143C47.2014 67.644 48.7 70.6144 48.7 79.0909H45.7ZM43 58.5H57V61.5H43V58.5ZM47.2 77.5909H52.8V80.5909H47.2V77.5909ZM52.8 77.5909H57V80.5909H52.8V77.5909ZM58.4192 60.4857C55.6014 68.7196 54.3 71.2038 54.3 79.0909H51.3C51.3 70.6144 52.7986 67.644 55.5808 59.5143L58.4192 60.4857Z" fill="white"/>
</svg>
